<svg width="80" height="80" viewBox="0 0 80 80" fill="none" xmlns="http://www.w3.org/2000/svg">
<rect x="0.5" y="0.5" width="79" height="79" rx="39.5" fill="white" stroke="#545BFD"/>
<path d="M48.9156 36.0878C48.9156 36.8816 49.4287 37.4312 50.218 37.4312C51.0073 37.4312 51.5204 36.902 51.5204 36.0878C51.5006 31.6506 48.0276 28.0479 43.7061 28.0276C42.9167 28.0276 42.4037 28.5568 42.4037 29.371C42.4037 30.1851 42.9167 30.7143 43.7061 30.7143C46.5871 30.7347 48.9156 33.1365 48.9156 36.0878Z" fill="#545BFD"/>
<path d="M54.1253 36.0877C54.1253 36.8815 54.6383 37.4311 55.4277 37.4311C56.217 37.4311 56.73 36.9019 56.73 36.0877C56.73 28.6993 50.8693 22.6745 43.7259 22.6745C42.9366 22.6745 42.4235 23.2037 42.4235 24.0179C42.4235 24.832 42.9366 25.3612 43.7259 25.3612C49.4485 25.3612 54.1253 30.1851 54.1253 36.0877ZM31.3533 34.7444C31.6493 36.6373 33.2477 43.8019 40.6673 47.3231C41.0028 47.4859 41.3777 47.4452 41.6737 47.2213C42.7195 46.4479 45.1467 44.6567 45.64 44.2904C46.3899 43.7205 47.7515 43.1913 48.8763 44.3107L54.7962 50.0302C54.7962 50.0302 55.6644 51.4956 55.0527 52.2895C53.3359 54.4266 49.4485 58.8841 49.4485 58.8841C49.4485 58.8841 48.7184 59.8 47.2582 59.2708C44.8902 58.3956 36.8588 54.1824 30.4061 46.285C24.0915 38.5506 22.4142 31.8948 21.1907 27.2338C20.7764 25.7073 21.0131 24.3232 22.1379 23.794C23.5982 23.102 29.893 20.0692 29.893 20.0692C29.893 20.0692 31.3533 19.6621 31.9847 20.8223C32.6162 21.9825 36.1484 26.9895 36.5826 27.7834C37.0956 28.6993 36.7799 29.4727 36.326 29.8798C35.7735 30.3683 32.6557 33.0754 31.6098 33.9709C31.4125 34.1541 31.2941 34.4594 31.3533 34.7444Z" fill="#545BFD"/>
</svg>
